name analog
datacolumns 19
datarows 80
range 0.365 0.4045
endheader
time	ground_force_vx	ground_force_vy	ground_force_vz	ground_force_px	ground_force_py	ground_force_pz	l_ground_force_vx	l_ground_force_vy	l_ground_force_vz	l_ground_force_px	l_ground_force_py	l_ground_force_pz	ground_torque_x	ground_torque_y	ground_torque_z	l_ground_torque_x	l_ground_torque_y	l_ground_torque_z
0.365	-0.0	-0.0	-0.0	0.9135406017303468	-0.0798708200454711	-904.7369384765624	-0.0	-0.0	-0.0	-0.0	-0.0	-0.0	-0.0	-0.0	-0.0	-0.0	-0.0	-0.0
0.3655	-0.0	-0.0	-0.0	-0.1784210205078125	-1.1003658771514893	-905.6754150390624	-0.0	-0.0	-0.0	-0.0	-0.0	-0.0	-0.0	-0.0	-0.0	-0.0	-0.0	-0.0
0.366	-0.0	-0.0	-0.0	-0.8610357046127319	-2.6118290424346924	-905.3430786132812	-0.0	-0.0	-0.0	-0.0	-0.0	-0.0	-0.0	-0.0	-0.0	-0.0	-0.0	-0.0
0.3665	-0.0	-0.0	-0.0	-1.686097502708435	-3.783594846725464	-905.5533447265624	-0.0	-0.0	-0.0	-0.0	-0.0	-0.0	-0.0	-0.0	-0.0	-0.0	-0.0	-0.0
0.367	-0.0	-0.0	-0.0	-2.239080905914306	-3.904117345809937	-906.135498046875	-0.0	-0.0	-0.0	-0.0	-0.0	-0.0	-0.0	-0.0	-0.0	-0.0	-0.0	-0.0
0.3675	-0.0	-0.0	-0.0	-2.805802345275879	-4.4162797927856445	-907.456298828125	-0.0	-0.0	-0.0	-0.0	-0.0	-0.0	-0.0	-0.0	-0.0	-0.0	-0.0	-0.0
0.368	-0.0	-0.0	-0.0	-3.674702405929565	-3.6714026927948	-910.0526123046876	-0.0	-0.0	-0.0	-0.0	-0.0	-0.0	-0.0	-0.0	-0.0	-0.0	-0.0	-0.0
0.3685	-0.0	-0.0	-0.0	-3.341168165206909	-3.688124179840088	-913.5835571289062	-0.0	-0.0	-0.0	-0.0	-0.0	-0.0	-0.0	-0.0	-0.0	-0.0	-0.0	-0.0
0.369	-0.0	-0.0	-0.0	-4.3640217781066895	-3.4999403953552246	-914.896240234375	-0.0	-0.0	-0.0	-0.0	-0.0	-0.0	-0.0	-0.0	-0.0	-0.0	-0.0	-0.0
0.3695	-0.0	-0.0	-0.0	-5.896101474761963	-1.85587477684021	-914.0947265625	-0.0	-0.0	-0.0	-0.0	-0.0	-0.0	-0.0	-0.0	-0.0	-0.0	-0.0	-0.0
0.37	-0.0	-0.0	-0.0	-8.855982780456543	-0.5187020897865295	-915.4091796875	-0.0	-0.0	-0.0	-0.0	-0.0	-0.0	-0.0	-0.0	-0.0	-0.0	-0.0	-0.0
0.3705	-0.0	-0.0	-0.0	-10.672544479370115	-0.8021736145019531	-917.3378295898438	-0.0	-0.0	-0.0	-0.0	-0.0	-0.0	-0.0	-0.0	-0.0	-0.0	-0.0	-0.0
0.371	-0.0	-0.0	-0.0	-13.154629707336426	-1.1508605480194092	-917.0161743164062	-0.0	-0.0	-0.0	-0.0	-0.0	-0.0	-0.0	-0.0	-0.0	-0.0	-0.0	-0.0
0.3715	-0.0	-0.0	-0.0	-15.30344295501709	-2.4702720642089844	-920.125	-0.0	-0.0	-0.0	-0.0	-0.0	-0.0	-0.0	-0.0	-0.0	-0.0	-0.0	-0.0
0.372	-0.0	-0.0	-0.0	-17.23274803161621	-3.646793842315674	-918.9742431640624	-0.0	-0.0	-0.0	-0.0	-0.0	-0.0	-0.0	-0.0	-0.0	-0.0	-0.0	-0.0
0.3725	-0.0	-0.0	-0.0	-18.020523071289062	-4.285728454589844	-920.2251586914062	-0.0	-0.0	-0.0	-0.0	-0.0	-0.0	-0.0	-0.0	-0.0	-0.0	-0.0	-0.0
0.373	-0.0	-0.0	-0.0	-19.19489097595215	-4.868569850921631	-917.7236328125	-0.0	-0.0	-0.0	-0.0	-0.0	-0.0	-0.0	-0.0	-0.0	-0.0	-0.0	-0.0
0.3735	-0.0	-0.0	-0.0	-20.42197608947754	-4.772089004516602	-914.65966796875	-0.0	-0.0	-0.0	-0.0	-0.0	-0.0	-0.0	-0.0	-0.0	-0.0	-0.0	-0.0
0.374	-0.0	-0.0	-0.0	-20.957399368286133	-4.805976867675781	-911.966552734375	-0.0	-0.0	-0.0	-0.0	-0.0	-0.0	-0.0	-0.0	-0.0	-0.0	-0.0	-0.0
0.3745	-0.0	-0.0	-0.0	-21.10870933532715	-5.087375640869141	-908.5416259765624	-0.0	-0.0	-0.0	-0.0	-0.0	-0.0	-0.0	-0.0	-0.0	-0.0	-0.0	-0.0
0.375	-0.0	-0.0	-0.0	-21.02623748779297	-5.238117218017578	-905.3631591796876	-0.0	-0.0	-0.0	-0.0	-0.0	-0.0	-0.0	-0.0	-0.0	-0.0	-0.0	-0.0
0.3755	-0.0	-0.0	-0.0	-20.483869552612305	-5.532783508300781	-908.2420043945312	-0.0	-0.0	-0.0	-0.0	-0.0	-0.0	-0.0	-0.0	-0.0	-0.0	-0.0	-0.0
0.376	-0.0	-0.0	-0.0	-18.960525512695312	-7.397823333740234	-909.2747802734376	-0.0	-0.0	-0.0	-0.0	-0.0	-0.0	-0.0	-0.0	-0.0	-0.0	-0.0	-0.0
0.3765	-0.0	-0.0	-0.0	-17.052207946777344	-8.913040161132812	-909.30029296875	-0.0	-0.0	-0.0	-0.0	-0.0	-0.0	-0.0	-0.0	-0.0	-0.0	-0.0	-0.0
0.377	-0.0	-0.0	-0.0	-15.96234130859375	-10.256330490112305	-910.3589477539062	-0.0	-0.0	-0.0	-0.0	-0.0	-0.0	-0.0	-0.0	-0.0	-0.0	-0.0	-0.0
0.3775	-0.0	-0.0	-0.0	-15.089012145996094	-11.80667209625244	-910.3089599609376	-0.0	-0.0	-0.0	-0.0	-0.0	-0.0	-0.0	-0.0	-0.0	-0.0	-0.0	-0.0
0.378	-0.0	-0.0	-0.0	-14.350777626037598	-12.72749137878418	-913.3233642578124	-0.0	-0.0	-0.0	-0.0	-0.0	-0.0	-0.0	-0.0	-0.0	-0.0	-0.0	-0.0
0.3785	-0.0	-0.0	-0.0	-13.750367164611816	-13.684500694274902	-913.2996215820312	-0.0	-0.0	-0.0	-0.0	-0.0	-0.0	-0.0	-0.0	-0.0	-0.0	-0.0	-0.0
0.379	-0.0	-0.0	-0.0	-13.22082805633545	-12.906250953674316	-913.818115234375	-0.0	-0.0	-0.0	-0.0	-0.0	-0.0	-0.0	-0.0	-0.0	-0.0	-0.0	-0.0
0.3795	-0.0	-0.0	-0.0	-12.686710357666016	-12.038330078125	-911.8198852539062	-0.0	-0.0	-0.0	-0.0	-0.0	-0.0	-0.0	-0.0	-0.0	-0.0	-0.0	-0.0
0.38	-0.0	-0.0	-0.0	-12.305441856384276	-11.18866729736328	-913.7431030273438	-0.0	-0.0	-0.0	-0.0	-0.0	-0.0	-0.0	-0.0	-0.0	-0.0	-0.0	-0.0
0.3805	-0.0	-0.0	-0.0	-11.744996070861816	-10.6901273727417	-912.9700927734376	-0.0	-0.0	-0.0	-0.0	-0.0	-0.0	-0.0	-0.0	-0.0	-0.0	-0.0	-0.0
0.381	-0.0	-0.0	-0.0	-10.233381271362305	-9.798983573913574	-915.672119140625	-0.0	-0.0	-0.0	-0.0	-0.0	-0.0	-0.0	-0.0	-0.0	-0.0	-0.0	-0.0
0.3815	-0.0	-0.0	-0.0	-8.873824119567871	-9.4530611038208	-916.6473999023438	-0.0	-0.0	-0.0	-0.0	-0.0	-0.0	-0.0	-0.0	-0.0	-0.0	-0.0	-0.0
0.382	-0.0	-0.0	-0.0	-6.911273002624512	-8.818831443786621	-915.8157348632812	-0.0	-0.0	-0.0	-0.0	-0.0	-0.0	-0.0	-0.0	-0.0	-0.0	-0.0	-0.0
0.3825	-0.0	-0.0	-0.0	-5.972103595733643	-7.796411991119385	-914.5891723632812	-0.0	-0.0	-0.0	-0.0	-0.0	-0.0	-0.0	-0.0	-0.0	-0.0	-0.0	-0.0
0.383	-0.0	-0.0	-0.0	-5.179126739501953	-6.647584438323975	-911.0762939453124	-0.0	-0.0	-0.0	-0.0	-0.0	-0.0	-0.0	-0.0	-0.0	-0.0	-0.0	-0.0
0.3835	-0.0	-0.0	-0.0	-3.7890682220458975	-4.372142314910889	-908.7508544921876	-0.0	-0.0	-0.0	-0.0	-0.0	-0.0	-0.0	-0.0	-0.0	-0.0	-0.0	-0.0
0.384	-0.0	-0.0	-0.0	-3.2631940841674805	-2.30338191986084	-905.7577514648438	-0.0	-0.0	-0.0	-0.0	-0.0	-0.0	-0.0	-0.0	-0.0	-0.0	-0.0	-0.0
0.3845	-0.0	-0.0	-0.0	-3.117816209793091	-0.1405168622732162	-903.7099609375	-0.0	-0.0	-0.0	-0.0	-0.0	-0.0	-0.0	-0.0	-0.0	-0.0	-0.0	-0.0
0.385	-0.0	-0.0	-0.0	-3.2071871757507324	1.8205924034118648	-902.96533203125	-0.0	-0.0	-0.0	-0.0	-0.0	-0.0	-0.0	-0.0	-0.0	-0.0	-0.0	-0.0
0.3855	-0.0	-0.0	-0.0	-1.9626312255859373	3.2978248596191406	-903.821533203125	-0.0	-0.0	-0.0	-0.0	-0.0	-0.0	-0.0	-0.0	-0.0	-0.0	-0.0	-0.0
0.386	-0.0	-0.0	-0.0	-0.5612020492553711	3.4253039360046387	-904.3419189453124	-0.0	-0.0	-0.0	-0.0	-0.0	-0.0	-0.0	-0.0	-0.0	-0.0	-0.0	-0.0
0.3865	-0.0	-0.0	-0.0	1.4860652685165403	3.022388458251953	-907.1187744140624	-0.0	-0.0	-0.0	-0.0	-0.0	-0.0	-0.0	-0.0	-0.0	-0.0	-0.0	-0.0
0.387	-0.0	-0.0	-0.0	3.704207181930542	3.0730295181274414	-908.73193359375	-0.0	-0.0	-0.0	-0.0	-0.0	-0.0	-0.0	-0.0	-0.0	-0.0	-0.0	-0.0
0.3875	-0.0	-0.0	-0.0	5.325043201446533	2.9375247955322266	-909.821533203125	-0.0	-0.0	-0.0	-0.0	-0.0	-0.0	-0.0	-0.0	-0.0	-0.0	-0.0	-0.0
0.388	-0.0	-0.0	-0.0	5.980763912200928	3.223319292068481	-908.9302978515624	-0.0	-0.0	-0.0	-0.0	-0.0	-0.0	-0.0	-0.0	-0.0	-0.0	-0.0	-0.0
0.3885	-0.0	-0.0	-0.0	5.534627437591553	4.317465305328369	-911.3878784179688	-0.0	-0.0	-0.0	-0.0	-0.0	-0.0	-0.0	-0.0	-0.0	-0.0	-0.0	-0.0
0.389	-0.0	-0.0	-0.0	5.93079137802124	4.677639961242676	-913.0858764648438	-0.0	-0.0	-0.0	-0.0	-0.0	-0.0	-0.0	-0.0	-0.0	-0.0	-0.0	-0.0
0.3895	-0.0	-0.0	-0.0	5.8878936767578125	4.502749919891357	-916.8815307617188	-0.0	-0.0	-0.0	-0.0	-0.0	-0.0	-0.0	-0.0	-0.0	-0.0	-0.0	-0.0
0.39	-0.0	-0.0	-0.0	6.297271728515625	4.271920680999756	-921.276123046875	-0.0	-0.0	-0.0	-0.0	-0.0	-0.0	-0.0	-0.0	-0.0	-0.0	-0.0	-0.0
0.3905	-0.0	-0.0	-0.0	6.475388050079346	3.654346466064453	-923.0659790039062	-0.0	-0.0	-0.0	-0.0	-0.0	-0.0	-0.0	-0.0	-0.0	-0.0	-0.0	-0.0
0.391	-0.0	-0.0	-0.0	6.555489540100098	3.608299493789673	-926.9265747070312	-0.0	-0.0	-0.0	-0.0	-0.0	-0.0	-0.0	-0.0	-0.0	-0.0	-0.0	-0.0
0.3915	-0.0	-0.0	-0.0	6.201533317565918	4.283865928649902	-928.8521118164062	-0.0	-0.0	-0.0	-0.0	-0.0	-0.0	-0.0	-0.0	-0.0	-0.0	-0.0	-0.0
0.392	-0.0	-0.0	-0.0	6.474567413330078	4.588855743408203	-930.629150390625	-0.0	-0.0	-0.0	-0.0	-0.0	-0.0	-0.0	-0.0	-0.0	-0.0	-0.0	-0.0
0.3925	-0.0	-0.0	-0.0	6.288040637969971	5.342628002166748	-931.1228637695312	-0.0	-0.0	-0.0	-0.0	-0.0	-0.0	-0.0	-0.0	-0.0	-0.0	-0.0	-0.0
0.393	-0.0	-0.0	-0.0	5.301925659179688	6.2440032958984375	-930.97265625	-0.0	-0.0	-0.0	-0.0	-0.0	-0.0	-0.0	-0.0	-0.0	-0.0	-0.0	-0.0
0.3935	-0.0	-0.0	-0.0	3.785556316375733	7.176174163818359	-929.5883178710938	-0.0	-0.0	-0.0	-0.0	-0.0	-0.0	-0.0	-0.0	-0.0	-0.0	-0.0	-0.0
0.394	-0.0	-0.0	-0.0	2.362980604171753	8.382645606994629	-932.5933837890624	-0.0	-0.0	-0.0	-0.0	-0.0	-0.0	-0.0	-0.0	-0.0	-0.0	-0.0	-0.0
0.3945	-0.0	-0.0	-0.0	2.0497677326202397	9.621939659118652	-932.378662109375	-0.0	-0.0	-0.0	-0.0	-0.0	-0.0	-0.0	-0.0	-0.0	-0.0	-0.0	-0.0
0.395	-0.0	-0.0	-0.0	1.9666115045547483	11.190835952758787	-932.3713989257812	-0.0	-0.0	-0.0	-0.0	-0.0	-0.0	-0.0	-0.0	-0.0	-0.0	-0.0	-0.0
0.3955	-0.0	-0.0	-0.0	1.5202380418777466	11.586952209472656	-932.5751953125	-0.0	-0.0	-0.0	-0.0	-0.0	-0.0	-0.0	-0.0	-0.0	-0.0	-0.0	-0.0
0.396	-0.0	-0.0	-0.0	0.5789953470230103	11.586952209472656	-933.9808349609376	-0.0	-0.0	-0.0	-0.0	-0.0	-0.0	-0.0	-0.0	-0.0	-0.0	-0.0	-0.0
0.3965	-0.0	-0.0	-0.0	-0.3584660589694977	11.274184226989746	-932.581298828125	-0.0	-0.0	-0.0	-0.0	-0.0	-0.0	-0.0	-0.0	-0.0	-0.0	-0.0	-0.0
0.397	-0.0	-0.0	-0.0	-0.5806000828742981	9.760510444641112	-929.042724609375	-0.0	-0.0	-0.0	-0.0	-0.0	-0.0	-0.0	-0.0	-0.0	-0.0	-0.0	-0.0
0.3975	-0.0	-0.0	-0.0	-0.9813156127929688	9.0940580368042	-928.7003173828124	-0.0	-0.0	-0.0	-0.0	-0.0	-0.0	-0.0	-0.0	-0.0	-0.0	-0.0	-0.0
0.398	-0.0	-0.0	-0.0	-1.921074390411377	9.179213523864746	-928.3309936523438	-0.0	-0.0	-0.0	-0.0	-0.0	-0.0	-0.0	-0.0	-0.0	-0.0	-0.0	-0.0
0.3985	-0.0	-0.0	-0.0	-4.015570163726807	8.466291427612305	-928.3486328125	-0.0	-0.0	-0.0	-0.0	-0.0	-0.0	-0.0	-0.0	-0.0	-0.0	-0.0	-0.0
0.399	-0.0	-0.0	-0.0	-5.934019565582275	7.751306533813477	-929.569580078125	-0.0	-0.0	-0.0	-0.0	-0.0	-0.0	-0.0	-0.0	-0.0	-0.0	-0.0	-0.0
0.3995	-0.0	-0.0	-0.0	-7.360293865203857	6.863893508911133	-931.34228515625	-0.0	-0.0	-0.0	-0.0	-0.0	-0.0	-0.0	-0.0	-0.0	-0.0	-0.0	-0.0
0.4	-0.0	-0.0	-0.0	-9.235116004943848	6.016667366027832	-932.9118041992188	-0.0	-0.0	-0.0	-0.0	-0.0	-0.0	-0.0	-0.0	-0.0	-0.0	-0.0	-0.0
0.4005	-0.0	-0.0	-0.0	-10.75019073486328	5.216394424438477	-934.5269165039062	-0.0	-0.0	-0.0	-0.0	-0.0	-0.0	-0.0	-0.0	-0.0	-0.0	-0.0	-0.0
0.401	-0.0	-0.0	-0.0	-11.107439994812012	4.323068141937256	-935.0448608398438	-0.0	-0.0	-0.0	-0.0	-0.0	-0.0	-0.0	-0.0	-0.0	-0.0	-0.0	-0.0
0.4015	-0.0	-0.0	-0.0	-11.017295837402344	4.010464191436768	-935.3994750976562	-0.0	-0.0	-0.0	-0.0	-0.0	-0.0	-0.0	-0.0	-0.0	-0.0	-0.0	-0.0
0.402	-0.0	-0.0	-0.0	-11.37543773651123	3.029702663421631	-936.4561157226562	-0.0	-0.0	-0.0	-0.0	-0.0	-0.0	-0.0	-0.0	-0.0	-0.0	-0.0	-0.0
0.4025	-0.0	-0.0	-0.0	-10.214664459228516	2.139495372772217	-936.80908203125	-0.0	-0.0	-0.0	-0.0	-0.0	-0.0	-0.0	-0.0	-0.0	-0.0	-0.0	-0.0
0.403	-0.0	-0.0	-0.0	-9.947067260742188	0.4901214838027954	-939.811767578125	-0.0	-0.0	-0.0	-0.0	-0.0	-0.0	-0.0	-0.0	-0.0	-0.0	-0.0	-0.0
0.4035	-0.0	-0.0	-0.0	-10.12594223022461	-0.3565216064453125	-942.63720703125	-0.0	-0.0	-0.0	-0.0	-0.0	-0.0	-0.0	-0.0	-0.0	-0.0	-0.0	-0.0
0.404	-0.0	-0.0	-0.0	-11.4189453125	-1.4265738725662231	-943.8748779296876	-0.0	-0.0	-0.0	-0.0	-0.0	-0.0	-0.0	-0.0	-0.0	-0.0	-0.0	-0.0
0.4045	-0.0	-0.0	-0.0	-12.356146812438965	-1.827336668968201	-943.5234375	-0.0	-0.0	-0.0	-0.0	-0.0	-0.0	-0.0	-0.0	-0.0	-0.0	-0.0	-0.0
